# xmcd
#
# Track frame offsets: 
#        150
#        74932
#        126233
#        142956
#        174880
#        215074
#        248115
#
# Disc length: 4161 seconds
#
# Revision: 1
# Processed by: cddbd v1.5.2PL0 Copyright (c) Steve Scherf et al.
# Submitted via: ExactAudioCopy v0.95b3
#
DISCID=6d103f07
DTITLE=Maceo Parker - Life On Planet Groove
DYEAR=1992
DGENRE=Soul
TTITLE0=Shake Everything You've Got
TTITLE1=Pass The Peas
TTITLE2=I Got You (I Feel Good)
TTITLE3=Got To Get U
TTITLE4=Addictive Love
TTITLE5=Georgia On My Mind
TTITLE6=Soul Power 92
EXTD=
EXTT0=
EXTT1=
EXTT2=
EXTT3=
EXTT4=
EXTT5=
EXTT6=
PLAYORDER=
